<svg width="55" height="55" viewBox="0 0 55 55" fill="none" xmlns="http://www.w3.org/2000/svg">
<rect x="1" y="1" width="53" height="53" rx="26.5" stroke="#E85102" stroke-width="2"/>
<path d="M28.1087 46C23.0775 46 18.8016 44.2397 15.2809 40.7191C11.7603 37.1984 10 32.9225 10 27.8913C10 23.3053 11.494 19.329 14.4819 15.9623C17.4698 12.5956 21.17 10.6081 25.5825 10C25.7047 10 25.8247 10.0045 25.9424 10.0136C26.0601 10.0226 26.1756 10.0355 26.2887 10.0521C25.5252 11.1175 24.9208 12.3021 24.4756 13.6059C24.0304 14.9097 23.8078 16.2762 23.8078 17.7052C23.8078 21.7299 25.2158 25.1502 28.0317 27.966C30.8476 30.7819 34.2686 32.1906 38.2948 32.1922C39.7299 32.1922 41.0978 31.9696 42.3986 31.5244C43.6994 31.0792 44.8675 30.4748 45.9027 29.7113C45.9208 29.8244 45.9336 29.9399 45.9411 30.0576C45.9487 30.1753 45.9532 30.2953 45.9547 30.4175C45.3752 34.8285 43.4022 38.5279 40.0355 41.5158C36.6688 44.5038 32.6947 45.9985 28.1087 46ZM28.1064 43.7364C31.4263 43.7364 34.4067 42.8212 37.0475 40.9907C39.6884 39.1602 41.6124 36.7744 42.8197 33.8332C42.0651 34.0219 41.3106 34.1728 40.5561 34.286C39.8016 34.3991 39.047 34.4557 38.2925 34.4557C33.6537 34.4557 29.7022 32.8244 26.4381 29.5619C23.174 26.2993 21.5428 22.3471 21.5443 17.7052C21.5443 16.9507 21.6009 16.1962 21.714 15.4416C21.8272 14.6871 21.9781 13.9326 22.1667 13.1781C19.2241 14.3853 16.8375 16.3094 15.007 18.9502C13.1766 21.591 12.2621 24.5714 12.2636 27.8913C12.2636 32.2676 13.8104 36.0025 16.9039 39.0961C19.9975 42.1896 23.7301 43.7364 28.1064 43.7364Z" fill="#E85102"/>
</svg>
