<svg width="712" height="506" viewBox="0 0 712 506" fill="none" xmlns="http://www.w3.org/2000/svg">
<g clip-path="url(#clip0_2517_102)">
<rect width="711.562" height="506" rx="35" fill="black"/>
<g filter="url(#filter0_f_2517_102)">
<ellipse cx="375.267" cy="161.995" rx="220.733" ry="16.1312" fill="url(#paint0_linear_2517_102)" fill-opacity="0.7"/>
</g>
<g filter="url(#filter1_f_2517_102)">
<path d="M715 274.951C460.583 32.6701 140.348 118.355 10.2642 274.951" stroke="url(#paint1_linear_2517_102)" stroke-width="30"/>
</g>
<g filter="url(#filter2_f_2517_102)">
<path d="M715 275.359C460.583 33.0773 140.348 118.762 10.2642 275.358" stroke="url(#paint2_linear_2517_102)" stroke-width="6"/>
</g>
<path d="M311.523 264V253.704L312.855 257.232L301.767 238.8H307.959L316.455 252.948H312.891L321.423 238.8H327.147L316.059 257.232L317.355 253.704V264H311.523ZM340.738 264.432C338.746 264.432 336.898 264.108 335.194 263.46C333.514 262.812 332.05 261.9 330.802 260.724C329.578 259.548 328.618 258.168 327.922 256.584C327.25 255 326.914 253.272 326.914 251.4C326.914 249.528 327.25 247.8 327.922 246.216C328.618 244.632 329.59 243.252 330.838 242.076C332.086 240.9 333.55 239.988 335.23 239.34C336.91 238.692 338.734 238.368 340.702 238.368C342.694 238.368 344.518 238.692 346.174 239.34C347.854 239.988 349.306 240.9 350.53 242.076C351.778 243.252 352.75 244.632 353.446 246.216C354.142 247.776 354.49 249.504 354.49 251.4C354.49 253.272 354.142 255.012 353.446 256.62C352.75 258.204 351.778 259.584 350.53 260.76C349.306 261.912 347.854 262.812 346.174 263.46C344.518 264.108 342.706 264.432 340.738 264.432ZM340.702 259.464C341.83 259.464 342.862 259.272 343.798 258.888C344.758 258.504 345.598 257.952 346.318 257.232C347.038 256.512 347.59 255.66 347.974 254.676C348.382 253.692 348.586 252.6 348.586 251.4C348.586 250.2 348.382 249.108 347.974 248.124C347.59 247.14 347.038 246.288 346.318 245.568C345.622 244.848 344.794 244.296 343.834 243.912C342.874 243.528 341.83 243.336 340.702 243.336C339.574 243.336 338.53 243.528 337.57 243.912C336.634 244.296 335.806 244.848 335.086 245.568C334.366 246.288 333.802 247.14 333.394 248.124C333.01 249.108 332.818 250.2 332.818 251.4C332.818 252.576 333.01 253.668 333.394 254.676C333.802 255.66 334.354 256.512 335.05 257.232C335.77 257.952 336.61 258.504 337.57 258.888C338.53 259.272 339.574 259.464 340.702 259.464ZM370.069 264.432C366.493 264.432 363.697 263.436 361.681 261.444C359.665 259.452 358.657 256.608 358.657 252.912V238.8H364.489V252.696C364.489 255.096 364.981 256.824 365.965 257.88C366.949 258.936 368.329 259.464 370.105 259.464C371.881 259.464 373.261 258.936 374.245 257.88C375.229 256.824 375.721 255.096 375.721 252.696V238.8H381.481V252.912C381.481 256.608 380.473 259.452 378.457 261.444C376.441 263.436 373.645 264.432 370.069 264.432ZM387.244 264V238.8H398.152C400.408 238.8 402.352 239.172 403.984 239.916C405.616 240.636 406.876 241.68 407.764 243.048C408.652 244.416 409.096 246.048 409.096 247.944C409.096 249.816 408.652 251.436 407.764 252.804C406.876 254.148 405.616 255.18 403.984 255.9C402.352 256.62 400.408 256.98 398.152 256.98H390.484L393.076 254.424V264H387.244ZM403.264 264L396.964 254.856H403.192L409.564 264H403.264ZM393.076 255.072L390.484 252.336H397.828C399.628 252.336 400.972 251.952 401.86 251.184C402.748 250.392 403.192 249.312 403.192 247.944C403.192 246.552 402.748 245.472 401.86 244.704C400.972 243.936 399.628 243.552 397.828 243.552H390.484L393.076 240.78V255.072ZM248.412 308V282.8H259.32C261.576 282.8 263.52 283.172 265.152 283.916C266.784 284.636 268.044 285.68 268.932 287.048C269.82 288.416 270.264 290.048 270.264 291.944C270.264 293.816 269.82 295.436 268.932 296.804C268.044 298.172 266.784 299.228 265.152 299.972C263.52 300.692 261.576 301.052 259.32 301.052H251.652L254.244 298.424V308H248.412ZM254.244 299.072L251.652 296.3H258.996C260.796 296.3 262.14 295.916 263.028 295.148C263.916 294.38 264.36 293.312 264.36 291.944C264.36 290.552 263.916 289.472 263.028 288.704C262.14 287.936 260.796 287.552 258.996 287.552H251.652L254.244 284.78V299.072ZM287.019 308.432C285.027 308.432 283.179 308.108 281.475 307.46C279.795 306.812 278.331 305.9 277.083 304.724C275.859 303.548 274.899 302.168 274.203 300.584C273.531 299 273.195 297.272 273.195 295.4C273.195 293.528 273.531 291.8 274.203 290.216C274.899 288.632 275.871 287.252 277.119 286.076C278.367 284.9 279.831 283.988 281.511 283.34C283.191 282.692 285.015 282.368 286.983 282.368C288.975 282.368 290.799 282.692 292.455 283.34C294.135 283.988 295.587 284.9 296.811 286.076C298.059 287.252 299.031 288.632 299.727 290.216C300.423 291.776 300.771 293.504 300.771 295.4C300.771 297.272 300.423 299.012 299.727 300.62C299.031 302.204 298.059 303.584 296.811 304.76C295.587 305.912 294.135 306.812 292.455 307.46C290.799 308.108 288.987 308.432 287.019 308.432ZM286.983 303.464C288.111 303.464 289.143 303.272 290.079 302.888C291.039 302.504 291.879 301.952 292.599 301.232C293.319 300.512 293.871 299.66 294.255 298.676C294.663 297.692 294.867 296.6 294.867 295.4C294.867 294.2 294.663 293.108 294.255 292.124C293.871 291.14 293.319 290.288 292.599 289.568C291.903 288.848 291.075 288.296 290.115 287.912C289.155 287.528 288.111 287.336 286.983 287.336C285.855 287.336 284.811 287.528 283.851 287.912C282.915 288.296 282.087 288.848 281.367 289.568C280.647 290.288 280.083 291.14 279.675 292.124C279.291 293.108 279.099 294.2 279.099 295.4C279.099 296.576 279.291 297.668 279.675 298.676C280.083 299.66 280.635 300.512 281.331 301.232C282.051 301.952 282.891 302.504 283.851 302.888C284.811 303.272 285.855 303.464 286.983 303.464ZM305.154 308V282.8H316.062C318.318 282.8 320.262 283.172 321.894 283.916C323.526 284.636 324.786 285.68 325.674 287.048C326.562 288.416 327.006 290.048 327.006 291.944C327.006 293.816 326.562 295.436 325.674 296.804C324.786 298.148 323.526 299.18 321.894 299.9C320.262 300.62 318.318 300.98 316.062 300.98H308.394L310.986 298.424V308H305.154ZM321.174 308L314.874 298.856H321.102L327.474 308H321.174ZM310.986 299.072L308.394 296.336H315.738C317.538 296.336 318.882 295.952 319.77 295.184C320.658 294.392 321.102 293.312 321.102 291.944C321.102 290.552 320.658 289.472 319.77 288.704C318.882 287.936 317.538 287.552 315.738 287.552H308.394L310.986 284.78V299.072ZM336.495 308V287.552H328.431V282.8H350.391V287.552H342.327V308H336.495ZM358.929 294.14H371.025V298.82H358.929V294.14ZM359.361 308H353.529V282.8H372.573V287.48H359.361V308ZM388.515 308.432C386.523 308.432 384.675 308.108 382.971 307.46C381.291 306.812 379.827 305.9 378.579 304.724C377.355 303.548 376.395 302.168 375.699 300.584C375.027 299 374.691 297.272 374.691 295.4C374.691 293.528 375.027 291.8 375.699 290.216C376.395 288.632 377.367 287.252 378.615 286.076C379.863 284.9 381.327 283.988 383.007 283.34C384.687 282.692 386.511 282.368 388.479 282.368C390.471 282.368 392.295 282.692 393.951 283.34C395.631 283.988 397.083 284.9 398.307 286.076C399.555 287.252 400.527 288.632 401.223 290.216C401.919 291.776 402.267 293.504 402.267 295.4C402.267 297.272 401.919 299.012 401.223 300.62C400.527 302.204 399.555 303.584 398.307 304.76C397.083 305.912 395.631 306.812 393.951 307.46C392.295 308.108 390.483 308.432 388.515 308.432ZM388.479 303.464C389.607 303.464 390.639 303.272 391.575 302.888C392.535 302.504 393.375 301.952 394.095 301.232C394.815 300.512 395.367 299.66 395.751 298.676C396.159 297.692 396.363 296.6 396.363 295.4C396.363 294.2 396.159 293.108 395.751 292.124C395.367 291.14 394.815 290.288 394.095 289.568C393.399 288.848 392.571 288.296 391.611 287.912C390.651 287.528 389.607 287.336 388.479 287.336C387.351 287.336 386.307 287.528 385.347 287.912C384.411 288.296 383.583 288.848 382.863 289.568C382.143 290.288 381.579 291.14 381.171 292.124C380.787 293.108 380.595 294.2 380.595 295.4C380.595 296.576 380.787 297.668 381.171 298.676C381.579 299.66 382.131 300.512 382.827 301.232C383.547 301.952 384.387 302.504 385.347 302.888C386.307 303.272 387.351 303.464 388.479 303.464ZM406.65 308V282.8H412.482V303.248H425.118V308H406.65ZM428.377 308V282.8H434.209V308H428.377ZM452.429 308.432C450.437 308.432 448.589 308.108 446.885 307.46C445.205 306.812 443.741 305.9 442.493 304.724C441.269 303.548 440.309 302.168 439.613 300.584C438.941 299 438.605 297.272 438.605 295.4C438.605 293.528 438.941 291.8 439.613 290.216C440.309 288.632 441.281 287.252 442.529 286.076C443.777 284.9 445.241 283.988 446.921 283.34C448.601 282.692 450.425 282.368 452.393 282.368C454.385 282.368 456.209 282.692 457.865 283.34C459.545 283.988 460.997 284.9 462.221 286.076C463.469 287.252 464.441 288.632 465.137 290.216C465.833 291.776 466.181 293.504 466.181 295.4C466.181 297.272 465.833 299.012 465.137 300.62C464.441 302.204 463.469 303.584 462.221 304.76C460.997 305.912 459.545 306.812 457.865 307.46C456.209 308.108 454.397 308.432 452.429 308.432ZM452.393 303.464C453.521 303.464 454.553 303.272 455.489 302.888C456.449 302.504 457.289 301.952 458.009 301.232C458.729 300.512 459.281 299.66 459.665 298.676C460.073 297.692 460.277 296.6 460.277 295.4C460.277 294.2 460.073 293.108 459.665 292.124C459.281 291.14 458.729 290.288 458.009 289.568C457.313 288.848 456.485 288.296 455.525 287.912C454.565 287.528 453.521 287.336 452.393 287.336C451.265 287.336 450.221 287.528 449.261 287.912C448.325 288.296 447.497 288.848 446.777 289.568C446.057 290.288 445.493 291.14 445.085 292.124C444.701 293.108 444.509 294.2 444.509 295.4C444.509 296.576 444.701 297.668 445.085 298.676C445.493 299.66 446.045 300.512 446.741 301.232C447.461 301.952 448.301 302.504 449.261 302.888C450.221 303.272 451.265 303.464 452.393 303.464Z" fill="#E85102"/>
</g>
<rect x="0.5" y="0.5" width="710.562" height="505" rx="34.5" stroke="#E85102"/>
<defs>
<filter id="filter0_f_2517_102" x="-45.4668" y="-54.1367" width="841.467" height="432.263" filterUnits="userSpaceOnUse" color-interpolation-filters="sRGB">
<feFlood flood-opacity="0" result="BackgroundImageFix"/>
<feBlend mode="normal" in="SourceGraphic" in2="BackgroundImageFix" result="shape"/>
<feGaussianBlur stdDeviation="100" result="effect1_foregroundBlur_2517_102"/>
</filter>
<filter id="filter1_f_2517_102" x="-52.9319" y="58.0742" width="829.707" height="278.03" filterUnits="userSpaceOnUse" color-interpolation-filters="sRGB">
<feFlood flood-opacity="0" result="BackgroundImageFix"/>
<feBlend mode="normal" in="SourceGraphic" in2="BackgroundImageFix" result="shape"/>
<feGaussianBlur stdDeviation="25.5" result="effect1_foregroundBlur_2517_102"/>
</filter>
<filter id="filter2_f_2517_102" x="1.12495" y="114.47" width="722.73" height="169.62" filterUnits="userSpaceOnUse" color-interpolation-filters="sRGB">
<feFlood flood-opacity="0" result="BackgroundImageFix"/>
<feBlend mode="normal" in="SourceGraphic" in2="BackgroundImageFix" result="shape"/>
<feGaussianBlur stdDeviation="3.35" result="effect1_foregroundBlur_2517_102"/>
</filter>
<linearGradient id="paint0_linear_2517_102" x1="154.533" y1="161.995" x2="596" y2="161.995" gradientUnits="userSpaceOnUse">
<stop stop-color="#B53F02" stop-opacity="0"/>
<stop offset="0.4999" stop-color="#8802E8"/>
<stop offset="1" stop-color="#822D01" stop-opacity="0"/>
</linearGradient>
<linearGradient id="paint1_linear_2517_102" x1="23.5068" y1="276.09" x2="703.252" y2="281.901" gradientUnits="userSpaceOnUse">
<stop stop-color="#BE4C01" stop-opacity="0"/>
<stop offset="0.5" stop-color="#E85102"/>
<stop offset="1" stop-color="#8B3701" stop-opacity="0"/>
</linearGradient>
<linearGradient id="paint2_linear_2517_102" x1="803.746" y1="282.207" x2="-75.8469" y2="440.615" gradientUnits="userSpaceOnUse">
<stop stop-color="#441D05" stop-opacity="0"/>
<stop offset="0.5" stop-color="#E85102"/>
<stop offset="0.9999" stop-color="#773309" stop-opacity="0"/>
</linearGradient>
<clipPath id="clip0_2517_102">
<rect width="711.562" height="506" rx="35" fill="white"/>
</clipPath>
</defs>
</svg>
