<svg width="37" height="33" viewBox="0 0 37 33" fill="none" xmlns="http://www.w3.org/2000/svg">
<path d="M18.04 32.5V30.5H31.27C31.6033 30.5 31.8913 30.3973 32.134 30.192C32.378 29.9867 32.5 29.7173 32.5 29.384V15.608C32.5 11.8613 31.1227 8.73267 28.368 6.222C25.612 3.71 22.3227 2.454 18.5 2.454C14.6773 2.454 11.388 3.71 8.632 6.222C5.87733 8.73267 4.5 11.8613 4.5 15.608V26.962H3.5C2.68267 26.962 1.978 26.6853 1.386 26.132C0.795334 25.58 0.5 24.896 0.5 24.08V20.31C0.5 19.7127 0.694 19.1827 1.082 18.72C1.47133 18.256 1.944 17.8793 2.5 17.59L2.534 15.132C2.57 13.0453 3.02333 11.112 3.894 9.332C4.76467 7.552 5.92733 6.00334 7.382 4.686C8.83667 3.36867 10.5193 2.342 12.43 1.606C14.3407 0.870003 16.364 0.501337 18.5 0.500004C20.636 0.49867 22.658 0.86667 24.566 1.604C26.474 2.34134 28.1493 3.36667 29.592 4.68C31.0347 5.99334 32.1913 7.54 33.062 9.32C33.9327 11.1 34.4007 13.0333 34.466 15.12L34.5 17.526C35.0307 17.7753 35.4967 18.1107 35.898 18.532C36.2993 18.952 36.5 19.4567 36.5 20.046V24.378C36.5 24.9673 36.2993 25.472 35.898 25.892C35.4967 26.312 35.0307 26.6467 34.5 26.896V29.384C34.5 30.2533 34.1853 30.99 33.556 31.594C32.9267 32.198 32.1647 32.5 31.27 32.5H18.04ZM13.27 19.578C12.8567 19.578 12.4967 19.4373 12.19 19.156C11.8833 18.876 11.73 18.5293 11.73 18.116C11.73 17.7027 11.8833 17.3493 12.19 17.056C12.4967 16.7627 12.8567 16.616 13.27 16.616C13.6833 16.616 14.0427 16.7627 14.348 17.056C14.6533 17.3493 14.8067 17.7027 14.808 18.116C14.8093 18.5293 14.656 18.876 14.348 19.156C14.04 19.436 13.68 19.576 13.268 19.576M23.732 19.576C23.3187 19.576 22.9587 19.436 22.652 19.156C22.3453 18.876 22.192 18.5293 22.192 18.116C22.192 17.7027 22.3453 17.3493 22.652 17.056C22.9587 16.7627 23.3187 16.616 23.732 16.616C24.1453 16.616 24.5047 16.7627 24.81 17.056C25.1153 17.3493 25.2687 17.7027 25.27 18.116C25.2713 18.5293 25.118 18.876 24.81 19.156C24.502 19.436 24.142 19.576 23.73 19.576M7.936 16.4C7.75467 13.4053 8.71933 10.8527 10.83 8.742C12.9393 6.63134 15.53 5.576 18.602 5.576C21.1833 5.576 23.4713 6.35134 25.466 7.902C27.4607 9.45267 28.678 11.4893 29.118 14.012C26.4687 13.9787 24.01 13.3027 21.742 11.984C19.474 10.6653 17.734 8.832 16.522 6.484C16.0393 8.792 15.036 10.8147 13.512 12.552C11.9867 14.2893 10.128 15.572 7.936 16.4Z" fill="white"/>
<path d="M13.27 19.578C12.8567 19.578 12.4967 19.4373 12.19 19.156C11.8833 18.876 11.73 18.5293 11.73 18.116C11.73 17.7027 11.8833 17.3493 12.19 17.056C12.4967 16.7627 12.8567 16.616 13.27 16.616C13.6833 16.616 14.0427 16.7627 14.348 17.056C14.6533 17.3493 14.8067 17.7027 14.808 18.116C14.8093 18.5293 14.656 18.876 14.348 19.156C14.04 19.436 13.68 19.576 13.268 19.576M23.732 19.576C23.3187 19.576 22.9587 19.436 22.652 19.156C22.3453 18.876 22.192 18.5293 22.192 18.116C22.192 17.7027 22.3453 17.3493 22.652 17.056C22.9587 16.7627 23.3187 16.616 23.732 16.616C24.1453 16.616 24.5047 16.7627 24.81 17.056C25.1153 17.3493 25.2687 17.7027 25.27 18.116C25.2713 18.5293 25.118 18.876 24.81 19.156C24.502 19.436 24.142 19.576 23.73 19.576M18.04 32.5V30.5H31.27C31.6033 30.5 31.8913 30.3973 32.134 30.192C32.378 29.9867 32.5 29.7173 32.5 29.384V15.608C32.5 11.8613 31.1227 8.73267 28.368 6.222C25.612 3.71 22.3227 2.454 18.5 2.454C14.6773 2.454 11.388 3.71 8.632 6.222C5.87733 8.73267 4.5 11.8613 4.5 15.608V26.962H3.5C2.68267 26.962 1.978 26.6853 1.386 26.132C0.795334 25.58 0.5 24.896 0.5 24.08V20.31C0.5 19.7127 0.694 19.1827 1.082 18.72C1.47133 18.256 1.944 17.8793 2.5 17.59L2.534 15.132C2.57 13.0453 3.02333 11.112 3.894 9.332C4.76467 7.552 5.92733 6.00334 7.382 4.686C8.83667 3.36867 10.5193 2.342 12.43 1.606C14.3407 0.870003 16.364 0.501337 18.5 0.500004C20.636 0.49867 22.658 0.86667 24.566 1.604C26.474 2.34134 28.1493 3.36667 29.592 4.68C31.0347 5.99334 32.1913 7.54 33.062 9.32C33.9327 11.1 34.4007 13.0333 34.466 15.12L34.5 17.526C35.0307 17.7753 35.4967 18.1107 35.898 18.532C36.2993 18.952 36.5 19.4567 36.5 20.046V24.378C36.5 24.9673 36.2993 25.472 35.898 25.892C35.4967 26.312 35.0307 26.6467 34.5 26.896V29.384C34.5 30.2533 34.1853 30.99 33.556 31.594C32.9267 32.198 32.1647 32.5 31.27 32.5H18.04ZM7.936 16.4C7.75467 13.4053 8.71933 10.8527 10.83 8.742C12.9393 6.63134 15.53 5.576 18.602 5.576C21.1833 5.576 23.4713 6.35134 25.466 7.902C27.4607 9.45267 28.678 11.4893 29.118 14.012C26.4687 13.9787 24.01 13.3027 21.742 11.984C19.474 10.6653 17.734 8.832 16.522 6.484C16.0393 8.792 15.036 10.8147 13.512 12.552C11.9867 14.2893 10.128 15.572 7.936 16.4Z" stroke="white"/>
</svg>
