<svg width="21" height="21" viewBox="0 0 21 21" fill="none" xmlns="http://www.w3.org/2000/svg">
<path d="M2.1 21C1.5225 21 1.0283 20.7945 0.6174 20.3836C0.2065 19.9727 0.0007 19.4782 0 18.9V4.2C0 3.6225 0.2058 3.1283 0.6174 2.7174C1.029 2.3065 1.5232 2.1007 2.1 2.1H3.15V0H5.25V2.1H13.65V0H15.75V2.1H16.8C17.3775 2.1 17.872 2.3058 18.2836 2.7174C18.6952 3.129 18.9007 3.6232 18.9 4.2V9.45H16.8V8.4H2.1V18.9H9.45V21H2.1ZM11.55 21V17.7712L17.3512 11.9962C17.5087 11.8387 17.6837 11.725 17.8762 11.655C18.0687 11.585 18.2612 11.55 18.4537 11.55C18.6637 11.55 18.865 11.5895 19.0575 11.6686C19.25 11.7477 19.425 11.8657 19.5825 12.0225L20.5537 12.9937C20.6937 13.1512 20.8033 13.3262 20.8824 13.5187C20.9615 13.7112 21.0007 13.9037 21 14.0962C20.9993 14.2887 20.9643 14.4858 20.895 14.6874C20.8257 14.889 20.7119 15.0682 20.5537 15.225L14.7787 21H11.55ZM18.4537 15.12L19.425 14.0962L18.4537 13.125L17.4562 14.1225L18.4537 15.12Z" fill="white"/>
</svg>
