<svg width="33" height="33" viewBox="0 0 33 33" fill="none" xmlns="http://www.w3.org/2000/svg">
<path d="M13.8333 18.2778H1.38889C0.855556 18.2778 0.5 18.6333 0.5 19.1667V31.6111C0.5 32.1444 0.855556 32.5 1.38889 32.5H13.8333C14.3667 32.5 14.7222 32.1444 14.7222 31.6111V19.1667C14.7222 18.6333 14.3667 18.2778 13.8333 18.2778ZM12.9444 30.7222H2.27778V20.0556H12.9444V30.7222ZM13.8333 0.5H1.38889C0.855556 0.5 0.5 0.855556 0.5 1.38889V13.8333C0.5 14.3667 0.855556 14.7222 1.38889 14.7222H13.8333C14.3667 14.7222 14.7222 14.3667 14.7222 13.8333V1.38889C14.7222 0.855556 14.3667 0.5 13.8333 0.5ZM12.9444 12.9444H2.27778V2.27778H12.9444V12.9444ZM31.6111 0.5H19.1667C18.6333 0.5 18.2778 0.855556 18.2778 1.38889V13.8333C18.2778 14.3667 18.6333 14.7222 19.1667 14.7222H31.6111C32.1444 14.7222 32.5 14.3667 32.5 13.8333V1.38889C32.5 0.855556 32.1444 0.5 31.6111 0.5ZM30.7222 12.9444H20.0556V2.27778H30.7222V12.9444ZM31.6111 24.5H26.2778V19.1667C26.2778 18.6333 25.9222 18.2778 25.3889 18.2778C24.8556 18.2778 24.5 18.6333 24.5 19.1667V24.5H19.1667C18.6333 24.5 18.2778 24.8556 18.2778 25.3889C18.2778 25.9222 18.6333 26.2778 19.1667 26.2778H24.5V31.6111C24.5 32.1444 24.8556 32.5 25.3889 32.5C25.9222 32.5 26.2778 32.1444 26.2778 31.6111V26.2778H31.6111C32.1444 26.2778 32.5 25.9222 32.5 25.3889C32.5 24.8556 32.1444 24.5 31.6111 24.5Z" fill="white" stroke="white"/>
</svg>
