<svg width="26" height="26" viewBox="0 0 26 26" fill="none" xmlns="http://www.w3.org/2000/svg">
<path d="M10.6258 18.5951C12.8395 18.5951 14.7212 17.8203 16.2708 16.2708C17.8203 14.7212 18.5951 12.8395 18.5951 10.6258C18.5951 8.41209 17.8203 6.53044 16.2708 4.98084C14.7212 3.43125 12.8395 2.65645 10.6258 2.65645C8.41209 2.65645 6.53044 3.43125 4.98084 4.98084C3.43125 6.53044 2.65645 8.41209 2.65645 10.6258C2.65645 12.8395 3.43125 14.7212 4.98084 16.2708C6.53044 17.8203 8.41209 18.5951 10.6258 18.5951ZM10.6258 14.6105C10.2495 14.6105 9.93424 14.483 9.6801 14.2279C9.42597 13.9729 9.29846 13.6577 9.29757 13.2822V6.64112C9.29757 6.26479 9.42508 5.94956 9.6801 5.69543C9.93512 5.44129 10.2504 5.31378 10.6258 5.3129C11.0012 5.31201 11.3169 5.43952 11.5728 5.69543C11.8287 5.95133 11.9558 6.26656 11.954 6.64112V13.2822C11.954 13.6586 11.8265 13.9743 11.5715 14.2293C11.3165 14.4843 11.0012 14.6114 10.6258 14.6105ZM5.97701 14.6105C5.60068 14.6105 5.28545 14.483 5.03132 14.2279C4.77718 13.9729 4.64967 13.6577 4.64879 13.2822V9.29757C4.64879 8.92124 4.7763 8.60601 5.03132 8.35188C5.28633 8.09774 5.60157 7.97023 5.97701 7.96935C6.35246 7.96846 6.66813 8.09597 6.92404 8.35188C7.17994 8.60778 7.30701 8.92301 7.30524 9.29757V13.2822C7.30524 13.6586 7.17773 13.9743 6.92271 14.2293C6.66769 14.4843 6.35246 14.6114 5.97701 14.6105ZM15.2746 14.6105C14.8983 14.6105 14.583 14.483 14.3289 14.2279C14.0748 13.9729 13.9472 13.6577 13.9464 13.2822V10.6258C13.9464 10.2495 14.0739 9.93424 14.3289 9.6801C14.5839 9.42597 14.8991 9.29846 15.2746 9.29757C15.65 9.29669 15.9657 9.4242 16.2216 9.6801C16.4775 9.93601 16.6046 10.2512 16.6028 10.6258V13.2822C16.6028 13.6586 16.4753 13.9743 16.2203 14.2293C15.9653 14.4843 15.65 14.6114 15.2746 14.6105ZM10.6258 21.2516C7.65943 21.2516 5.14687 20.2222 3.08812 18.1635C1.02937 16.1047 0 13.5922 0 10.6258C0 7.65943 1.02937 5.14687 3.08812 3.08812C5.14687 1.02937 7.65943 0 10.6258 0C13.5922 0 16.1047 1.02937 18.1635 3.08812C20.2222 5.14687 21.2516 7.65943 21.2516 10.6258C21.2516 11.8655 21.0581 13.0387 20.6712 14.1456C20.2842 15.2524 19.7361 16.2597 19.0268 17.1673L25.6347 23.7752C25.8782 24.0187 26 24.3287 26 24.705C26 25.0813 25.8782 25.3912 25.6347 25.6347C25.3912 25.8782 25.0813 26 24.705 26C24.3287 26 24.0187 25.8782 23.7752 25.6347L17.1673 19.0268C16.2597 19.7352 15.2524 20.2833 14.1456 20.6712C13.0387 21.059 11.8655 21.2525 10.6258 21.2516Z" fill="white"/>
</svg>
