<svg width="55" height="55" viewBox="0 0 55 55" fill="none" xmlns="http://www.w3.org/2000/svg">
<path d="M27.5 1C31.1701 1 34.6099 1.6965 37.8291 3.08496C41.0675 4.48171 43.871 6.37121 46.249 8.75098C48.6273 11.1311 50.5175 13.9349 51.918 17.1719C53.3096 20.3884 54.0053 23.8278 54 27.499C53.9946 31.1719 53.2974 34.6123 51.9141 37.8301C50.5231 41.0656 48.6348 43.8685 46.25 46.248C43.8639 48.6288 41.0595 50.5194 37.8281 51.918C34.6174 53.3076 31.1782 54.0035 27.501 54H27.5C23.8262 54 20.3869 53.3032 17.1719 51.915C13.9371 50.5183 11.133 48.6292 8.75098 46.249C6.36931 43.8691 4.4798 41.0654 3.08496 37.8291C1.69838 34.6119 1.00183 31.1721 1 27.5C0.99823 23.8284 1.69501 20.3888 3.08496 17.1719C4.48358 13.935 6.37272 11.1311 8.75098 8.75098C11.129 6.3712 13.9325 4.48171 17.1709 3.08496C20.3901 1.6965 23.8299 1 27.5 1ZM22.375 41.25C22.375 42.6582 22.8799 43.8875 23.8721 44.8799C24.8642 45.872 26.0931 46.3759 27.5 46.374V46.375C28.9076 46.375 30.1373 45.8712 31.1299 44.8809C32.1236 43.8893 32.6273 42.6582 32.625 41.248L32.623 40.25H22.375V41.25ZM27.502 8.625C26.47 8.62266 25.5582 8.98438 24.834 9.71094C24.1117 10.4358 23.75 11.3457 23.75 12.375V12.9951C21.2424 13.7896 19.2544 15.3527 17.8184 17.6572C16.2744 20.1351 15.502 22.8737 15.5 25.8496V32H12.75V39.5H42.25V32H39.5V25.8496C39.4999 22.8717 38.7279 20.1327 37.1816 17.6562C35.7441 15.354 33.7557 13.792 31.25 12.9961V12.375C31.25 11.3436 30.8895 10.432 30.1641 9.70898C29.4405 8.98792 28.5305 8.62743 27.502 8.625Z" stroke="#E85102" stroke-width="2"/>
</svg>
