<svg width="37" height="32" viewBox="0 0 37 32" fill="none" xmlns="http://www.w3.org/2000/svg">
<path d="M26.0957 31.6877L25.5365 28.8917C25.1637 28.7364 24.8145 28.5736 24.489 28.4033C24.1634 28.2331 23.8291 28.0231 23.4861 27.7733L20.7834 28.6121L18.9194 25.4433L21.063 23.5793C21.0008 23.1444 20.9698 22.7406 20.9698 22.3678C20.9698 21.995 21.0008 21.5911 21.063 21.1562L18.9194 19.2922L20.7834 16.1234L23.4861 16.9622C23.8279 16.7137 24.1621 16.5043 24.489 16.3341C24.8158 16.1638 25.165 16.0004 25.5365 15.8438L26.0957 13.0479H29.8237L30.3829 15.8438C30.7557 15.9992 31.1055 16.17 31.4323 16.3564C31.7591 16.5428 32.0928 16.7758 32.4332 17.0554L35.136 16.1234L37 19.3854L34.8564 21.2494C34.9186 21.6222 34.9496 22.0105 34.9496 22.4144C34.9496 22.8182 34.9186 23.2065 34.8564 23.5793L37 25.4433L35.136 28.6121L32.4332 27.7733C32.0915 28.0218 31.7579 28.2318 31.4323 28.4033C31.1067 28.5748 30.7569 28.7376 30.3829 28.8917L29.8237 31.6877H26.0957ZM0 29.8237V24.6045C0 23.5793 0.264064 22.6163 0.792191 21.7154C1.32032 20.8144 2.05038 20.131 2.98237 19.665C4.56675 18.8573 6.35306 18.1738 8.34131 17.6146C10.3296 17.0554 12.5197 16.7758 14.9118 16.7758H15.5642C15.7506 16.7758 15.937 16.8069 16.1234 16.869C15.2225 19.1058 14.8497 21.327 15.005 23.5327C15.1604 25.7385 15.906 27.8354 17.2418 29.8237H0ZM27.9597 26.0957C28.9849 26.0957 29.8628 25.731 30.5935 25.0016C31.3242 24.2721 31.6889 23.3942 31.6877 22.3678C31.6864 21.3413 31.3217 20.464 30.5935 19.7358C29.8653 19.0076 28.9874 18.6423 27.9597 18.6398C26.932 18.6373 26.0547 19.0027 25.3278 19.7358C24.6008 20.469 24.2355 21.3463 24.2317 22.3678C24.228 23.3892 24.5933 24.2672 25.3278 25.0016C26.0622 25.736 26.9395 26.1007 27.9597 26.0957ZM14.9118 14.9118C12.8615 14.9118 11.1062 14.1818 9.6461 12.7217C8.18598 11.2615 7.45592 9.5063 7.45592 7.45592C7.45592 5.40554 8.18598 3.65029 9.6461 2.19018C11.1062 0.730059 12.8615 0 14.9118 0C16.9622 0 18.7175 0.730059 20.1776 2.19018C21.6377 3.65029 22.3678 5.40554 22.3678 7.45592C22.3678 9.5063 21.6377 11.2615 20.1776 12.7217C18.7175 14.1818 16.9622 14.9118 14.9118 14.9118Z" fill="white"/>
</svg>
